# xmcd CD database file
#
# Track frame offsets:
#	150
#	11067
#	30240
#	44247
#	63227
#	77725
#	88842
#	106507
#	120300
#	138817
#	153180
#	169160
#	186110
#	200032
#	213390
#	233225
#	247287
#	262320
#	276372
#
# Disc length: 3815 seconds
#
# Revision: 2
# Processed by: cddbd v1.5.2PL0 Copyright (c) Steve Scherf et al.
# Submitted via: CDex 1.70beta2
#
DISCID=0e0ee513
DTITLE=Various Artist - The Winners 2 [CD1]
DYEAR=1994
DGENRE=Country
TTITLE0=John Williamson - Good Woman
TTITLE1=Lee Kernaghan - Three Chain Road
TTITLE2=Slim Dusty - Charleville
TTITLE3=Jane Saunders - Life in a Small Town
TTITLE4=Michael Gant - Under the Southern Cross
TTITLE5=Pixie - Kindee
TTITLE6=Pat Drummond - The Ballad of Geordie Johnson
TTITLE7=Norma O'Hara Murphy - Mr. Midnight
TTITLE8=Michael Fix - Sunrise Over Alice
TTITLE9=Pat Drummond - Laughter Like a Shield
TTITLE10=Gina Jeffreys - Two Stars Fell
TTITLE11=René Diaz - Hard Times in Wonderland
TTITLE12=Beccy Cole - Foolin' Around
TTITLE13=Dude Ranch - Available Space
TTITLE14=Slim Dusty - I've Been, Seen, and Done That
TTITLE15=Lindsay Butler's Tamworth Connection - Hoedown
TTITLE16=Brian Letton - In the Arms of a Memory
TTITLE17=Val Butler - The Girl from the Gulf
TTITLE18=Peter Horan - Crazy Heart
EXTD=YEAR: 1994
EXTT0=
EXTT1=
EXTT2=
EXTT3=
EXTT4=
EXTT5=
EXTT6=
EXTT7=
EXTT8=
EXTT9=
EXTT10=
EXTT11=
EXTT12=
EXTT13=
EXTT14=
EXTT15=
EXTT16=
EXTT17=
EXTT18=
PLAYORDER=
